<svg width="14" height="14" viewBox="0 0 14 14" fill="none" xmlns="http://www.w3.org/2000/svg">
<path d="M7 13.6667C6.08888 13.6667 5.22777 13.4916 4.41666 13.1413C3.60555 12.7911 2.89733 12.3133 2.292 11.708C1.68666 11.1027 1.20888 10.3945 0.858662 9.58334C0.508439 8.77223 0.333328 7.91112 0.333328 7.00001C0.333328 6.07779 0.508439 5.21401 0.858662 4.40868C1.20888 3.60334 1.68666 2.89779 2.292 2.29201C2.89733 1.68623 3.60555 1.20845 4.41666 0.858677C5.22777 0.508899 6.08888 0.333788 7 0.333344C7.92222 0.333344 8.78622 0.508455 9.59199 0.858677C10.3978 1.2089 11.1031 1.68668 11.708 2.29201C12.3129 2.89734 12.7907 3.6029 13.1413 4.40868C13.492 5.21445 13.6671 6.07823 13.6667 7.00001C13.6667 7.91112 13.4916 8.77223 13.1413 9.58334C12.7911 10.3945 12.3133 11.1029 11.708 11.7087C11.1027 12.3145 10.3971 12.7922 9.59133 13.142C8.78555 13.4918 7.92177 13.6667 7 13.6667ZM7 12.3C7.28888 11.9 7.53888 11.4833 7.75 11.05C7.96111 10.6167 8.13333 10.1556 8.26666 9.66668H5.73333C5.86666 10.1556 6.03888 10.6167 6.25 11.05C6.46111 11.4833 6.71111 11.9 7 12.3ZM5.26666 12.0333C5.06666 11.6667 4.89177 11.286 4.74199 10.8913C4.59222 10.4967 4.46711 10.0885 4.36666 9.66668H2.39999C2.72222 10.2222 3.12511 10.7056 3.60866 11.1167C4.09222 11.5278 4.64488 11.8333 5.26666 12.0333ZM8.73333 12.0333C9.35555 11.8333 9.90844 11.5278 10.392 11.1167C10.8756 10.7056 11.2782 10.2222 11.6 9.66668H9.63333C9.53333 10.0889 9.40844 10.4973 9.25866 10.892C9.10888 11.2867 8.93377 11.6671 8.73333 12.0333ZM1.83333 8.33334H4.1C4.06666 8.11112 4.04177 7.89179 4.02533 7.67534C4.00888 7.4589 4.00044 7.23379 4 7.00001C3.99955 6.76623 4.008 6.54134 4.02533 6.32534C4.04266 6.10934 4.06755 5.88979 4.1 5.66668H1.83333C1.77777 5.8889 1.73622 6.10845 1.70866 6.32534C1.68111 6.54223 1.66711 6.76712 1.66666 7.00001C1.66622 7.2329 1.68022 7.45801 1.70866 7.67534C1.73711 7.89268 1.77866 8.11201 1.83333 8.33334ZM5.43333 8.33334H8.56666C8.6 8.11112 8.62511 7.89179 8.642 7.67534C8.65888 7.4589 8.66711 7.23379 8.66666 7.00001C8.66622 6.76623 8.65777 6.54134 8.64133 6.32534C8.62488 6.10934 8.6 5.88979 8.56666 5.66668H5.43333C5.39999 5.8889 5.37511 6.10845 5.35866 6.32534C5.34222 6.54223 5.33377 6.76712 5.33333 7.00001C5.33288 7.2329 5.34133 7.45801 5.35866 7.67534C5.376 7.89268 5.40088 8.11201 5.43333 8.33334ZM9.9 8.33334H12.1667C12.2222 8.11112 12.264 7.89179 12.292 7.67534C12.32 7.4589 12.3338 7.23379 12.3333 7.00001C12.3329 6.76623 12.3191 6.54134 12.292 6.32534C12.2649 6.10934 12.2231 5.88979 12.1667 5.66668H9.9C9.93333 5.8889 9.95844 6.10845 9.97533 6.32534C9.99222 6.54223 10.0004 6.76712 10 7.00001C9.99955 7.2329 9.99111 7.45801 9.97466 7.67534C9.95822 7.89268 9.93333 8.11201 9.9 8.33334ZM9.63333 4.33334H11.6C11.2778 3.77779 10.8751 3.29445 10.392 2.88334C9.90888 2.47223 9.356 2.16668 8.73333 1.96668C8.93333 2.33334 9.10844 2.71401 9.25866 3.10868C9.40888 3.50334 9.53377 3.91157 9.63333 4.33334ZM5.73333 4.33334H8.26666C8.13333 3.84445 7.96111 3.38334 7.75 2.95001C7.53888 2.51668 7.28888 2.10001 7 1.70001C6.71111 2.10001 6.46111 2.51668 6.25 2.95001C6.03888 3.38334 5.86666 3.84445 5.73333 4.33334ZM2.39999 4.33334H4.36666C4.46666 3.91112 4.59177 3.50268 4.74199 3.10801C4.89222 2.71334 5.06711 2.3329 5.26666 1.96668C4.64444 2.16668 4.09155 2.47223 3.608 2.88334C3.12444 3.29445 2.72177 3.77779 2.39999 4.33334Z" fill="#E6E6E6"/>
</svg>
