<svg width="24" height="24" viewBox="0 0 24 24" fill="none" xmlns="http://www.w3.org/2000/svg">
<path fill-rule="evenodd" clip-rule="evenodd" d="M10.94 7.93999C11.2212 7.65909 11.6025 7.50131 12 7.50131C12.3975 7.50131 12.7787 7.65909 13.06 7.93999L18.718 13.596C18.9992 13.8774 19.1572 14.259 19.1571 14.6568C19.157 15.0547 18.9989 15.4362 18.7175 15.7175C18.4361 15.9988 18.0545 16.1567 17.6566 16.1566C17.2588 16.1565 16.8772 15.9984 16.596 15.717L12 11.121L7.40398 15.717C7.1212 15.9904 6.74237 16.1417 6.34907 16.1385C5.95577 16.1353 5.57948 15.9777 5.30123 15.6997C5.02299 15.4217 4.86506 15.0456 4.86146 14.6523C4.85785 14.259 5.00887 13.88 5.28198 13.597L10.939 7.93899L10.94 7.93999Z" fill="black"/>
</svg>
